<mxfile host="app.diagrams.net" modified="2024-01-03T07:02:42.654Z" agent="Mozilla/5.0 (Macintosh; Intel Mac OS X 10_15_7) AppleWebKit/537.36 (KHTML, like Gecko) Chrome/120.0.0.0 Safari/537.36" etag="EdLVGAWu4P-_b81WZZGU" version="22.1.16" type="github">
  <diagram name="Sivu-1" id="EIs9S9dKqHirdoMljAtJ">
    <mxGraphModel dx="1847" dy="1166" grid="1" gridSize="10" guides="1" tooltips="1" connect="1" arrows="1" fold="1" page="1" pageScale="1" pageWidth="1169" pageHeight="827" math="0" shadow="0">
      <root>
        <mxCell id="0" />
        <mxCell id="1" parent="0" />
        <mxCell id="9W5dxkRoST_efDfnnvW7-5" value="" style="shape=rect;fillColor=#333333;strokeColor=none;fontColor=#1A1A1A;" vertex="1" parent="1">
          <mxGeometry x="80" y="80" width="358" height="642" as="geometry" />
        </mxCell>
        <mxCell id="9W5dxkRoST_efDfnnvW7-6" value="" style="shape=rect;fillColor=#333333;strokeColor=none;" vertex="1" parent="1">
          <mxGeometry x="500" y="80" width="358" height="642" as="geometry" />
        </mxCell>
        <mxCell id="9W5dxkRoST_efDfnnvW7-7" value="" style="shape=rect;fillColor=#333333;strokeColor=none;" vertex="1" parent="1">
          <mxGeometry x="900" y="80" width="358" height="642" as="geometry" />
        </mxCell>
        <mxCell id="9W5dxkRoST_efDfnnvW7-53" value="12:30" style="dashed=0;shape=rect;fontSize=13;align=right;fillColor=#33FF33;strokeColor=none;fontColor=#FFFFFF;spacingRight=4;spacingTop=1;fontStyle=0;resizeWidth=1;whiteSpace=wrap;html=1;" vertex="1" parent="1">
          <mxGeometry x="80.00000000000045" y="80" width="358" height="24" as="geometry" />
        </mxCell>
        <mxCell id="9W5dxkRoST_efDfnnvW7-54" value="" style="dashed=0;shape=mxgraph.gmdl.top_bar;strokeColor=none;" vertex="1" parent="9W5dxkRoST_efDfnnvW7-53">
          <mxGeometry x="1" y="0.5" width="46" height="14" relative="1" as="geometry">
            <mxPoint x="-92" y="-7" as="offset" />
          </mxGeometry>
        </mxCell>
        <mxCell id="9W5dxkRoST_efDfnnvW7-55" value="" style="dashed=0;shape=rect;strokeColor=none;fillColor=#33FF33;resizeWidth=1;fontSize=20;fontColor=#FFFFFF;verticalAlign=middle;align=left;spacingLeft=72;spacingTop=-4;whiteSpace=wrap;html=1;" vertex="1" parent="1">
          <mxGeometry x="80.00000000000045" y="104" width="358" height="57" as="geometry" />
        </mxCell>
        <mxCell id="9W5dxkRoST_efDfnnvW7-56" value="" style="dashed=0;shape=mxgraph.gmdl.preferences;strokeColor=#ffffff;strokeWidth=2;" vertex="1" parent="9W5dxkRoST_efDfnnvW7-55">
          <mxGeometry y="0.5" width="24" height="16" relative="1" as="geometry">
            <mxPoint x="16" y="-8" as="offset" />
          </mxGeometry>
        </mxCell>
        <mxCell id="9W5dxkRoST_efDfnnvW7-60" value="" style="dashed=0;shape=rect;strokeColor=none;fillColor=#000000;resizeWidth=1;" vertex="1" parent="1">
          <mxGeometry x="79.99999999999955" y="674" width="358" height="48" as="geometry" />
        </mxCell>
        <mxCell id="9W5dxkRoST_efDfnnvW7-61" value="" style="dashed=0;shape=mxgraph.gmdl.back;strokeColor=#ffffff;fillColor=#000000;strokeWidth=2;" vertex="1" parent="9W5dxkRoST_efDfnnvW7-60">
          <mxGeometry x="0.25" y="0.5" width="14" height="14" relative="1" as="geometry">
            <mxPoint x="-7" y="-7" as="offset" />
          </mxGeometry>
        </mxCell>
        <mxCell id="9W5dxkRoST_efDfnnvW7-62" value="" style="shape=ellipse;strokeColor=#ffffff;fillColor=#000000;strokeWidth=2;" vertex="1" parent="9W5dxkRoST_efDfnnvW7-60">
          <mxGeometry x="0.5" y="0.5" width="14" height="14" relative="1" as="geometry">
            <mxPoint x="-7" y="-7" as="offset" />
          </mxGeometry>
        </mxCell>
        <mxCell id="9W5dxkRoST_efDfnnvW7-63" value="" style="shape=rect;strokeColor=#ffffff;fillColor=#000000;strokeWidth=2;" vertex="1" parent="9W5dxkRoST_efDfnnvW7-60">
          <mxGeometry x="0.75" y="0.5" width="14" height="14" relative="1" as="geometry">
            <mxPoint x="-7" y="-7" as="offset" />
          </mxGeometry>
        </mxCell>
        <mxCell id="9W5dxkRoST_efDfnnvW7-64" value="" style="dashed=0;shape=rect;strokeColor=none;fillColor=#33FF33;resizeWidth=1;fontSize=20;fontColor=#FFFFFF;verticalAlign=middle;align=left;spacingLeft=72;spacingTop=-4;whiteSpace=wrap;html=1;" vertex="1" parent="1">
          <mxGeometry x="500.00000000000045" y="104" width="358" height="57" as="geometry" />
        </mxCell>
        <mxCell id="9W5dxkRoST_efDfnnvW7-65" value="" style="dashed=0;shape=mxgraph.gmdl.preferences;strokeColor=#ffffff;strokeWidth=2;" vertex="1" parent="9W5dxkRoST_efDfnnvW7-64">
          <mxGeometry y="0.5" width="24" height="16" relative="1" as="geometry">
            <mxPoint x="16" y="-8" as="offset" />
          </mxGeometry>
        </mxCell>
        <mxCell id="9W5dxkRoST_efDfnnvW7-66" value="12:30" style="dashed=0;shape=rect;fontSize=13;align=right;fillColor=#33FF33;strokeColor=none;fontColor=#FFFFFF;spacingRight=4;spacingTop=1;fontStyle=0;resizeWidth=1;whiteSpace=wrap;html=1;" vertex="1" parent="1">
          <mxGeometry x="500.00000000000045" y="80" width="358" height="24" as="geometry" />
        </mxCell>
        <mxCell id="9W5dxkRoST_efDfnnvW7-67" value="" style="dashed=0;shape=mxgraph.gmdl.top_bar;strokeColor=none;" vertex="1" parent="9W5dxkRoST_efDfnnvW7-66">
          <mxGeometry x="1" y="0.5" width="46" height="14" relative="1" as="geometry">
            <mxPoint x="-92" y="-7" as="offset" />
          </mxGeometry>
        </mxCell>
        <mxCell id="9W5dxkRoST_efDfnnvW7-68" value="" style="dashed=0;shape=rect;strokeColor=none;fillColor=#33FF33;resizeWidth=1;fontSize=20;fontColor=#FFFFFF;verticalAlign=middle;align=left;spacingLeft=72;spacingTop=-4;whiteSpace=wrap;html=1;" vertex="1" parent="1">
          <mxGeometry x="900.0000000000005" y="104" width="358" height="57" as="geometry" />
        </mxCell>
        <mxCell id="9W5dxkRoST_efDfnnvW7-69" value="" style="dashed=0;shape=mxgraph.gmdl.preferences;strokeColor=#ffffff;strokeWidth=2;" vertex="1" parent="9W5dxkRoST_efDfnnvW7-68">
          <mxGeometry y="0.5" width="24" height="16" relative="1" as="geometry">
            <mxPoint x="16" y="-8" as="offset" />
          </mxGeometry>
        </mxCell>
        <mxCell id="9W5dxkRoST_efDfnnvW7-70" value="12:30" style="dashed=0;shape=rect;fontSize=13;align=right;fillColor=#33FF33;strokeColor=none;fontColor=#FFFFFF;spacingRight=4;spacingTop=1;fontStyle=0;resizeWidth=1;whiteSpace=wrap;html=1;" vertex="1" parent="1">
          <mxGeometry x="900.0000000000005" y="80" width="358" height="24" as="geometry" />
        </mxCell>
        <mxCell id="9W5dxkRoST_efDfnnvW7-71" value="" style="dashed=0;shape=mxgraph.gmdl.top_bar;strokeColor=none;" vertex="1" parent="9W5dxkRoST_efDfnnvW7-70">
          <mxGeometry x="1" y="0.5" width="46" height="14" relative="1" as="geometry">
            <mxPoint x="-92" y="-7" as="offset" />
          </mxGeometry>
        </mxCell>
        <mxCell id="9W5dxkRoST_efDfnnvW7-72" value="" style="dashed=0;shape=rect;strokeColor=none;fillColor=#000000;resizeWidth=1;" vertex="1" parent="1">
          <mxGeometry x="499.99999999999955" y="674" width="358" height="48" as="geometry" />
        </mxCell>
        <mxCell id="9W5dxkRoST_efDfnnvW7-73" value="" style="dashed=0;shape=mxgraph.gmdl.back;strokeColor=#ffffff;fillColor=#000000;strokeWidth=2;" vertex="1" parent="9W5dxkRoST_efDfnnvW7-72">
          <mxGeometry x="0.25" y="0.5" width="14" height="14" relative="1" as="geometry">
            <mxPoint x="-7" y="-7" as="offset" />
          </mxGeometry>
        </mxCell>
        <mxCell id="9W5dxkRoST_efDfnnvW7-74" value="" style="shape=ellipse;strokeColor=#ffffff;fillColor=#000000;strokeWidth=2;" vertex="1" parent="9W5dxkRoST_efDfnnvW7-72">
          <mxGeometry x="0.5" y="0.5" width="14" height="14" relative="1" as="geometry">
            <mxPoint x="-7" y="-7" as="offset" />
          </mxGeometry>
        </mxCell>
        <mxCell id="9W5dxkRoST_efDfnnvW7-75" value="" style="shape=rect;strokeColor=#ffffff;fillColor=#000000;strokeWidth=2;" vertex="1" parent="9W5dxkRoST_efDfnnvW7-72">
          <mxGeometry x="0.75" y="0.5" width="14" height="14" relative="1" as="geometry">
            <mxPoint x="-7" y="-7" as="offset" />
          </mxGeometry>
        </mxCell>
        <mxCell id="9W5dxkRoST_efDfnnvW7-76" value="" style="dashed=0;shape=rect;strokeColor=none;fillColor=#000000;resizeWidth=1;" vertex="1" parent="1">
          <mxGeometry x="899.9999999999995" y="674" width="358" height="48" as="geometry" />
        </mxCell>
        <mxCell id="9W5dxkRoST_efDfnnvW7-77" value="" style="dashed=0;shape=mxgraph.gmdl.back;strokeColor=#ffffff;fillColor=#000000;strokeWidth=2;" vertex="1" parent="9W5dxkRoST_efDfnnvW7-76">
          <mxGeometry x="0.25" y="0.5" width="14" height="14" relative="1" as="geometry">
            <mxPoint x="-7" y="-7" as="offset" />
          </mxGeometry>
        </mxCell>
        <mxCell id="9W5dxkRoST_efDfnnvW7-78" value="" style="shape=ellipse;strokeColor=#ffffff;fillColor=#000000;strokeWidth=2;" vertex="1" parent="9W5dxkRoST_efDfnnvW7-76">
          <mxGeometry x="0.5" y="0.5" width="14" height="14" relative="1" as="geometry">
            <mxPoint x="-7" y="-7" as="offset" />
          </mxGeometry>
        </mxCell>
        <mxCell id="9W5dxkRoST_efDfnnvW7-79" value="" style="shape=rect;strokeColor=#ffffff;fillColor=#000000;strokeWidth=2;" vertex="1" parent="9W5dxkRoST_efDfnnvW7-76">
          <mxGeometry x="0.75" y="0.5" width="14" height="14" relative="1" as="geometry">
            <mxPoint x="-7" y="-7" as="offset" />
          </mxGeometry>
        </mxCell>
        <mxCell id="9W5dxkRoST_efDfnnvW7-82" value="" style="dashed=0;shape=rect;shadow=1;strokeColor=#eeeeee;strokeWidth=1;fillColor=#000000;fontSize=22;fontColor=#CCCCCC;align=left;spacingLeft=65;whiteSpace=wrap;html=1;" vertex="1" parent="1">
          <mxGeometry x="89" y="610" width="340" height="56" as="geometry" />
        </mxCell>
        <mxCell id="9W5dxkRoST_efDfnnvW7-83" value="" style="dashed=0;shape=mxgraph.gmdl.search;strokeWidth=2;strokeColor=#666666;" vertex="1" parent="9W5dxkRoST_efDfnnvW7-82">
          <mxGeometry y="0.5" width="16" height="16" relative="1" as="geometry">
            <mxPoint x="22" y="-8" as="offset" />
          </mxGeometry>
        </mxCell>
        <mxCell id="9W5dxkRoST_efDfnnvW7-84" value="" style="dashed=0;shape=mxgraph.gmdl.voice;strokeWidth=2;strokeColor=#666666;fillColor=#666666;" vertex="1" parent="9W5dxkRoST_efDfnnvW7-82">
          <mxGeometry x="1" y="0.5" width="12" height="20" relative="1" as="geometry">
            <mxPoint x="-34" y="-10" as="offset" />
          </mxGeometry>
        </mxCell>
        <mxCell id="9W5dxkRoST_efDfnnvW7-86" value="" style="dashed=0;shape=rect;shadow=1;strokeColor=#eeeeee;strokeWidth=1;fillColor=#000000;fontSize=22;fontColor=#CCCCCC;align=left;spacingLeft=65;whiteSpace=wrap;html=1;" vertex="1" parent="1">
          <mxGeometry x="509" y="610" width="340" height="56" as="geometry" />
        </mxCell>
        <mxCell id="9W5dxkRoST_efDfnnvW7-87" value="" style="dashed=0;shape=mxgraph.gmdl.search;strokeWidth=2;strokeColor=#666666;" vertex="1" parent="9W5dxkRoST_efDfnnvW7-86">
          <mxGeometry y="0.5" width="16" height="16" relative="1" as="geometry">
            <mxPoint x="22" y="-8" as="offset" />
          </mxGeometry>
        </mxCell>
        <mxCell id="9W5dxkRoST_efDfnnvW7-88" value="" style="dashed=0;shape=mxgraph.gmdl.voice;strokeWidth=2;strokeColor=#666666;fillColor=#666666;" vertex="1" parent="9W5dxkRoST_efDfnnvW7-86">
          <mxGeometry x="1" y="0.5" width="12" height="20" relative="1" as="geometry">
            <mxPoint x="-34" y="-10" as="offset" />
          </mxGeometry>
        </mxCell>
        <mxCell id="9W5dxkRoST_efDfnnvW7-89" value="&amp;nbsp;Kartongit, paperit ja paristot pitäisi saada kotoa pois lojumasta." style="rounded=1;whiteSpace=wrap;html=1;align=left;fillColor=#000000;fontColor=#FFFFFF;spacingLeft=0;spacingBottom=0;spacingRight=0;spacing=20;" vertex="1" parent="1">
          <mxGeometry x="509" y="500" width="341" height="100" as="geometry" />
        </mxCell>
      </root>
    </mxGraphModel>
  </diagram>
</mxfile>
